<svg xmlns="http://www.w3.org/2000/svg" xmlns:xlink="http://www.w3.org/1999/xlink" width="486" height="70" viewBox="0 0 486 70" fill="none">
<path d="M191.47 42.239C191.47 42.4193 191.29 44.7622 191.29 44.7622L166.913 44.7622C167.572 47.766 170.027 49.5081 170.027 49.5081C172.483 51.2503 176.137 51.2503 176.137 51.2503C178.652 51.2503 180.599 50.4994 180.599 50.4994C182.546 49.7484 184.223 48.1264 184.223 48.1264L189.194 53.5332C184.642 58.7597 175.897 58.7597 175.897 58.7597C170.447 58.7597 166.254 56.627 166.254 56.627C162.061 54.4944 159.785 50.7096 159.785 50.7096C157.509 46.9249 157.509 42.1189 157.509 42.1189C157.509 37.373 159.755 33.5582 159.755 33.5582C162.002 29.7434 165.925 27.6108 165.925 27.6108C169.848 25.4781 174.699 25.4781 174.699 25.4781C179.431 25.4781 183.264 27.5207 183.264 27.5207C187.098 29.5632 189.284 33.378 189.284 33.378C191.47 37.1927 191.47 42.239 191.47 42.239ZM174.759 32.567C171.585 32.567 169.429 34.3692 169.429 34.3692C167.272 36.1715 166.793 39.2954 166.793 39.2954L182.665 39.2954C182.186 36.2315 180.03 34.3992 180.03 34.3992C177.874 32.567 174.759 32.567 174.759 32.567ZM419.969 25.9587L429.313 25.9587L429.313 58.2791L419.969 58.2791L419.969 25.9587ZM424.641 21.4531C422.066 21.4531 420.449 19.9512 420.449 19.9512C418.831 18.4493 418.831 16.2265 418.831 16.2265C418.831 14.0038 420.449 12.5019 420.449 12.5019C422.066 11 424.641 11 424.641 11C427.217 11 428.834 12.4418 428.834 12.4418C430.451 13.8836 430.451 16.0463 430.451 16.0463C430.451 18.3892 428.834 19.9212 428.834 19.9212C427.217 21.4531 424.641 21.4531 424.641 21.4531ZM123.848 13.7034L133.192 13.7034L133.192 58.2791L123.848 58.2791L123.848 13.7034ZM141.877 25.9587L151.22 25.9587L151.22 58.2791L141.877 58.2791L141.877 25.9587ZM146.549 21.4531C143.973 21.4531 142.356 19.9512 142.356 19.9512C140.739 18.4493 140.739 16.2265 140.739 16.2265C140.739 14.0038 142.356 12.5019 142.356 12.5019C143.973 11 146.549 11 146.549 11C149.124 11 150.741 12.4418 150.741 12.4418C152.358 13.8836 152.358 16.0463 152.358 16.0463C152.358 18.3892 150.741 19.9212 150.741 19.9212C149.124 21.4531 146.549 21.4531 146.549 21.4531ZM253.881 56.7171C252.503 57.7384 250.496 58.2491 250.496 58.2491C248.49 58.7597 246.274 58.7597 246.274 58.7597C240.524 58.7597 237.379 55.816 237.379 55.816C234.235 52.8723 234.235 47.1652 234.235 47.1652L234.235 33.8886L234.235 18.8098L243.579 18.8098L243.579 26.6796L251.605 26.6796L251.605 33.8886L243.579 33.8886L243.579 47.0451C243.579 49.0876 244.627 50.199 244.627 50.199C245.675 51.3104 247.592 51.3104 247.592 51.3104C249.808 51.3104 251.365 50.1089 251.365 50.1089L253.881 56.7171ZM411.345 13.7034L411.345 58.2791L402.42 58.2791L402.42 54.5544C398.946 58.7597 392.358 58.7597 392.358 58.7597C387.806 58.7597 384.122 56.7171 384.122 56.7171C380.439 54.6746 378.342 50.8899 378.342 50.8899C376.246 47.1051 376.246 42.1189 376.246 42.1189C376.246 37.1327 378.342 33.3479 378.342 33.3479C380.439 29.5632 384.122 27.5207 384.122 27.5207C387.806 25.4781 392.358 25.4781 392.358 25.4781C398.527 25.4781 402.001 29.383 402.001 29.383L402.001 13.7034L411.345 13.7034ZM393.975 51.0701C397.509 51.0701 399.845 48.637 399.845 48.637C402.181 46.204 402.181 42.1189 402.181 42.1189C402.181 38.0338 399.845 35.6008 399.845 35.6008C397.509 33.1677 393.975 33.1677 393.975 33.1677C390.381 33.1677 388.045 35.6008 388.045 35.6008C385.709 38.0338 385.709 42.1189 385.709 42.1189C385.709 46.204 388.045 48.637 388.045 48.637C390.381 51.0701 393.975 51.0701 393.975 51.0701ZM290.536 59C285.565 59 280.923 57.6483 280.923 57.6483C276.281 56.2966 273.466 54.1339 273.466 54.1339L276.76 46.8048C279.456 48.7872 283.169 49.9887 283.169 49.9887C286.883 51.1902 290.596 51.1902 290.596 51.1902C294.729 51.1902 296.705 49.9587 296.705 49.9587C298.682 48.7272 298.682 46.6846 298.682 46.6846C298.682 45.1827 297.514 44.1915 297.514 44.1915C296.346 43.2002 294.519 42.5995 294.519 42.5995C292.693 41.9987 289.578 41.2778 289.578 41.2778C284.786 40.1364 281.732 38.995 281.732 38.995C278.677 37.8536 276.491 35.3304 276.491 35.3304C274.305 32.8073 274.305 28.602 274.305 28.602C274.305 24.9374 276.281 21.9637 276.281 21.9637C278.258 18.99 282.241 17.2478 282.241 17.2478C286.224 15.5056 291.974 15.5056 291.974 15.5056C295.987 15.5056 299.82 16.4668 299.82 16.4668C303.653 17.428 306.528 19.2303 306.528 19.2303L303.534 26.6195C297.724 23.3154 291.914 23.3154 291.914 23.3154C287.841 23.3154 285.894 24.637 285.894 24.637C283.948 25.9587 283.948 28.1214 283.948 28.1214C283.948 30.2841 286.194 31.3354 286.194 31.3354C288.44 32.3867 293.052 33.408 293.052 33.408C297.843 34.5494 300.898 35.6909 300.898 35.6909C303.953 36.8323 306.139 39.2954 306.139 39.2954C308.325 41.7584 308.325 45.9637 308.325 45.9637C308.325 49.5682 306.319 52.5419 306.319 52.5419C304.312 55.5156 300.299 57.2578 300.299 57.2578C296.286 59 290.536 59 290.536 59ZM369.837 25.9587L369.837 58.2791L360.973 58.2791L360.973 54.4343C359.116 56.5369 356.541 57.6483 356.541 57.6483C353.965 58.7597 350.97 58.7597 350.97 58.7597C344.621 58.7597 340.908 55.0951 340.908 55.0951C337.195 51.4305 337.195 44.2215 337.195 44.2215L337.195 25.9587L346.538 25.9587L346.538 42.8398C346.538 50.6496 353.067 50.6496 353.067 50.6496C356.421 50.6496 358.457 48.4568 358.457 48.4568C360.494 46.2641 360.494 41.9387 360.494 41.9387L360.494 25.9587L369.837 25.9587ZM453.331 58.7597C448.24 58.7597 444.197 56.627 444.197 56.627C440.154 54.4944 437.878 50.7096 437.878 50.7096C435.602 46.9249 435.602 42.1189 435.602 42.1189C435.602 37.3129 437.878 33.5282 437.878 33.5282C440.154 29.7434 444.197 27.6108 444.197 27.6108C448.24 25.4781 453.331 25.4781 453.331 25.4781C458.422 25.4781 462.435 27.6108 462.435 27.6108C466.448 29.7434 468.724 33.5282 468.724 33.5282C471 37.3129 471 42.1189 471 42.1189C471 46.9249 468.724 50.7096 468.724 50.7096C466.448 54.4944 462.435 56.627 462.435 56.627C458.422 58.7597 453.331 58.7597 453.331 58.7597ZM453.331 51.0701C456.925 51.0701 459.231 48.637 459.231 48.637C461.537 46.204 461.537 42.1189 461.537 42.1189C461.537 38.0338 459.231 35.6008 459.231 35.6008C456.925 33.1677 453.331 33.1677 453.331 33.1677C449.737 33.1677 447.401 35.6008 447.401 35.6008C445.065 38.0338 445.065 42.1189 445.065 42.1189C445.065 46.204 447.401 48.637 447.401 48.637C449.737 51.0701 453.331 51.0701 453.331 51.0701ZM100.07 59C95.0988 59 90.4569 57.6483 90.4569 57.6483C85.8151 56.2966 83 54.1339 83 54.1339L86.2942 46.8048C88.9895 48.7872 92.703 49.9887 92.703 49.9887C96.4165 51.1902 100.13 51.1902 100.13 51.1902C104.263 51.1902 106.239 49.9587 106.239 49.9587C108.216 48.7272 108.216 46.6846 108.216 46.6846C108.216 45.1827 107.048 44.1915 107.048 44.1915C105.88 43.2002 104.053 42.5995 104.053 42.5995C102.226 41.9987 99.1118 41.2778 99.1118 41.2778C94.3202 40.1364 91.2655 38.995 91.2655 38.995C88.2109 37.8536 86.0247 35.3304 86.0247 35.3304C83.8385 32.8073 83.8385 28.602 83.8385 28.602C83.8385 24.9374 85.8151 21.9637 85.8151 21.9637C87.7916 18.99 91.7746 17.2478 91.7746 17.2478C95.7576 15.5056 101.508 15.5056 101.508 15.5056C105.521 15.5056 109.354 16.4668 109.354 16.4668C113.187 17.428 116.062 19.2303 116.062 19.2303L113.067 26.6195C107.257 23.3154 101.448 23.3154 101.448 23.3154C97.3748 23.3154 95.4282 24.637 95.4282 24.637C93.4816 25.9587 93.4816 28.1214 93.4816 28.1214C93.4816 30.2841 95.7277 31.3354 95.7277 31.3354C97.9738 32.3867 102.586 33.408 102.586 33.408C107.377 34.5494 110.432 35.6909 110.432 35.6909C113.487 36.8323 115.673 39.2954 115.673 39.2954C117.859 41.7584 117.859 45.9637 117.859 45.9637C117.859 49.5682 115.852 52.5419 115.852 52.5419C113.846 55.5156 109.833 57.2578 109.833 57.2578C105.82 59 100.07 59 100.07 59ZM213.272 58.7597C208.121 58.7597 204.018 56.627 204.018 56.627C199.915 54.4944 197.609 50.7096 197.609 50.7096C195.303 46.9249 195.303 42.1189 195.303 42.1189C195.303 37.3129 197.609 33.5282 197.609 33.5282C199.915 29.7434 204.018 27.6108 204.018 27.6108C208.121 25.4781 213.272 25.4781 213.272 25.4781C218.363 25.4781 222.166 27.6108 222.166 27.6108C225.969 29.7434 227.706 33.7084 227.706 33.7084L220.459 37.6133C217.943 33.1677 213.212 33.1677 213.212 33.1677C209.558 33.1677 207.162 35.5707 207.162 35.5707C204.767 37.9737 204.767 42.1189 204.767 42.1189C204.767 46.2641 207.162 48.6671 207.162 48.6671C209.558 51.0701 213.212 51.0701 213.212 51.0701C218.003 51.0701 220.459 46.6245 220.459 46.6245L227.706 50.5895C225.969 54.4343 222.166 56.597 222.166 56.597C218.363 58.7597 213.272 58.7597 213.272 58.7597ZM332.103 56.7171C330.726 57.7384 328.719 58.2491 328.719 58.2491C326.713 58.7597 324.497 58.7597 324.497 58.7597C318.747 58.7597 315.602 55.816 315.602 55.816C312.458 52.8723 312.458 47.1652 312.458 47.1652L312.458 33.8886L312.458 26.6796L312.458 18.8098L321.801 18.8098L321.801 26.6796L329.827 26.6796L329.827 33.8886L321.801 33.8886L321.801 47.0451C321.801 49.0876 322.85 50.199 322.85 50.199C323.898 51.3104 325.814 51.3104 325.814 51.3104C328.031 51.3104 329.588 50.1089 329.588 50.1089L332.103 56.7171Z" fill-rule="evenodd"  fill="#FFFFFF" >
</path>
<path     fill="url(#linear_fill_0_4_0)"  d="M14 56.9532C14 62.3999 19.3245 66.2542 24.4987 64.553L54 54.8533L54 34.1415C54 31.7871 52.9629 29.5523 51.165 28.0323L34 13.52L14 21.0352L14 56.9532Z">
</path>
<path     fill="url(#linear_fill_0_4_1)"  d="M14 56.9532C14 62.3999 19.3245 66.2542 24.4987 64.553L54 54.8533L54 34.1415C54 31.7871 52.9629 29.5523 51.165 28.0323L34 13.52L14 21.0352L14 56.9532Z">
</path>
<path     fill="url(#linear_fill_0_4_2)"  d="M14 56.9532C14 62.3999 19.3245 66.2542 24.4987 64.553L54 54.8533L54 34.1415C54 31.7871 52.9629 29.5523 51.165 28.0323L34 13.52L14 21.0352L14 56.9532Z">
</path>
<path     fill="url(#linear_fill_0_5_0)"  d="M14 20.9333L14 34L51.2856 21.3455C52.9083 20.7947 54 19.2714 54 17.5577L54 6L14 20.9333Z">
</path>
<path     fill="url(#linear_fill_0_6_0)" fill-opacity="0.2" d="M14 54.4242L14 56.9706C14 62.4109 19.3128 66.2645 24.4841 64.5752L54 54.9333L54 40L14 54.4242Z">
</path>
<path     fill="url(#linear_fill_0_6_1)"  d="M14 54.4242L14 56.9706C14 62.4109 19.3128 66.2645 24.4841 64.5752L54 54.9333L54 40L14 54.4242Z">
</path>
<path     fill="url(#linear_fill_0_7_0)" fill-opacity="0.2" d="M14 35.8373C14 37.4577 14.9777 38.9181 16.4759 39.5355L54 55L54 41.1303C54 39.5416 53.0598 38.1034 51.6044 37.4662L14 21L14 35.8373Z">
</path>
<path     fill="url(#linear_fill_0_7_1)" fill-opacity="0.3" d="M14 35.8373C14 37.4577 14.9777 38.9181 16.4759 39.5355L54 55L54 41.1303C54 39.5416 53.0598 38.1034 51.6044 37.4662L14 21L14 35.8373Z">
</path>
<path     fill="url(#linear_fill_0_7_2)" fill-opacity="0.2" d="M14 35.8373C14 37.4577 14.9777 38.9181 16.4759 39.5355L54 55L54 41.1303C54 39.5416 53.0598 38.1034 51.6044 37.4662L14 21L14 35.8373Z">
</path>
<path     fill="url(#linear_fill_0_7_3)" fill-opacity="0.2" d="M14 35.8373C14 37.4577 14.9777 38.9181 16.4759 39.5355L54 55L54 41.1303C54 39.5416 53.0598 38.1034 51.6044 37.4662L14 21L14 35.8373Z">
</path>
<path     fill="url(#linear_fill_0_7_4)"  d="M14 35.8373C14 37.4577 14.9777 38.9181 16.4759 39.5355L54 55L54 41.1303C54 39.5416 53.0598 38.1034 51.6044 37.4662L14 21L14 35.8373Z">
</path>
<defs>
<radialGradient id="linear_fill_0_4_0" cx="0" cy="0" r="1" gradientTransform="translate(26.1591796875 40.334251403808594) rotate(-249.8040307495719) scale(8.761278005049942, 22.464815397563953)" gradientUnits="userSpaceOnUse">
<stop offset="0" stop-color="#5E1AFF" stop-opacity="0.47" />
<stop offset="1" stop-color="#5E1AFF" stop-opacity="0.01" />
</radialGradient>
<radialGradient id="linear_fill_0_4_1" cx="0" cy="0" r="1" gradientTransform="translate(34.822021484375 23.18008804321289) rotate(73.47928546636717) scale(9.57666202597958, 29.927068831186187)" gradientUnits="userSpaceOnUse">
<stop offset="0" stop-color="#5E1AFF" stop-opacity="0.57" />
<stop offset="1" stop-color="#5E1AFF" stop-opacity="0.01" />
</radialGradient>
<linearGradient id="linear_fill_0_4_2" x1="14" y1="68.00485229492188" x2="54" y2="6.004848480224609" gradientUnits="userSpaceOnUse">
<stop offset="0" stop-color="#F1EBFF"  />
<stop offset="1" stop-color="#D8C7FF"  />
</linearGradient>
<linearGradient id="linear_fill_0_5_0" x1="14" y1="34" x2="54" y2="6" gradientUnits="userSpaceOnUse">
<stop offset="0" stop-color="#5E1AFF"  />
<stop offset="1" stop-color="#7949EB"  />
</linearGradient>
<radialGradient id="linear_fill_0_6_0" cx="0" cy="0" r="1" gradientTransform="translate(34 60.84123992919922) rotate(-203.18750375623495) scale(27.442320868613404, 5.705264213848941)" gradientUnits="userSpaceOnUse">
<stop offset="0" stop-color="#FFFFFF"  />
<stop offset="1" stop-color="#FFFFFF" stop-opacity="0.01" />
</radialGradient>
<linearGradient id="linear_fill_0_6_1" x1="14" y1="68" x2="41.85797119140625" y2="50.32640075683594" gradientUnits="userSpaceOnUse">
<stop offset="0" stop-color="#7949EB"  />
<stop offset="1" stop-color="#5E1AFF"  />
</linearGradient>
<radialGradient id="linear_fill_0_7_0" cx="0" cy="0" r="1" gradientTransform="translate(22.94439697265625 27.073081970214844) rotate(-166.1842275185868) scale(34.04793350932773, 7.07857245516169)" gradientUnits="userSpaceOnUse">
<stop offset="0" stop-color="#FFFFFF" stop-opacity="0.86" />
<stop offset="1" stop-color="#FFFFFF" stop-opacity="0.01" />
</radialGradient>
<radialGradient id="linear_fill_0_7_1" cx="0" cy="0" r="1" gradientTransform="translate(52.58441162109375 41.112701416015625) rotate(-139.6583344615985) scale(27.340513902241486, 25.901539486334038)" gradientUnits="userSpaceOnUse">
<stop offset="0" stop-color="#FFFFFF"  />
<stop offset="1" stop-color="#FFFFFF" stop-opacity="0.01" />
</radialGradient>
<radialGradient id="linear_fill_0_7_2" cx="0" cy="0" r="1" gradientTransform="translate(22.94439697265625 27.073081970214844) rotate(-156.12494708156572) scale(52.27061618475716, 10.867071971882986)" gradientUnits="userSpaceOnUse">
<stop offset="0" stop-color="#FFFFFF" stop-opacity="0.01" />
<stop offset="1" stop-color="#FFFFFF" stop-opacity="0.01" />
</radialGradient>
<radialGradient id="linear_fill_0_7_3" cx="0" cy="0" r="1" gradientTransform="translate(34 46.0107421875) rotate(-136.93797997771244) scale(25.105754130501765, 16.963347385474165)" gradientUnits="userSpaceOnUse">
<stop offset="0" stop-color="#FFFFFF" stop-opacity="0.8" />
<stop offset="1" stop-color="#FFFFFF" stop-opacity="0.01" />
</radialGradient>
<linearGradient id="linear_fill_0_7_4" x1="14" y1="55" x2="54" y2="21" gradientUnits="userSpaceOnUse">
<stop offset="0" stop-color="#5E1AFF"  />
<stop offset="1" stop-color="#7949EB"  />
</linearGradient>
</defs>
</svg>
